<?xml version="1.0" encoding="UTF-8" standalone="no"?>
<svg width="857px" height="168px" viewBox="0 0 857 168" version="1.1" xmlns="http://www.w3.org/2000/svg" xmlns:xlink="http://www.w3.org/1999/xlink">
    <!-- Generator: Sketch 41.2 (35397) - http://www.bohemiancoding.com/sketch -->
    <title>pe_webpack_header</title>
    <desc>Created with Sketch.</desc>
    <defs>
        <rect id="path-1" x="0" y="0" width="857" height="168"></rect>
        <rect id="path-3" x="0" y="0" width="156" height="174"></rect>
        <mask id="mask-4" maskContentUnits="userSpaceOnUse" maskUnits="objectBoundingBox" x="0" y="0" width="156" height="174" fill="white">
            <use xlink:href="#path-3"></use>
        </mask>
    </defs>
    <g id="Page-1" stroke="none" stroke-width="1" fill="none" fill-rule="evenodd">
        <g id="pe_webpack_header">
            <g id="Group-4">
                <mask id="mask-2" fill="white">
                    <use xlink:href="#path-1"></use>
                </mask>
                <g id="Mask"></g>
                <g mask="url(#mask-2)">
                    <g transform="translate(16.000000, -55.000000)">
                        <g id="Group-3" stroke-width="1" fill-rule="evenodd">
                            <g id="Group">
                                <use id="Rectangle" stroke="#FFFFFF" mask="url(#mask-4)" stroke-width="4.09999996" xlink:href="#path-3"></use>
                                <g id="Group-2" transform="translate(25.131579, 12.282353)" fill="#FFFFFF">
                                    <path d="M51.2356426,64.5140324 C50.4355247,64.176368 49.8537963,63.7120863 49.49044,63.1211735 C49.1270837,62.5302608 48.9454083,61.8824686 48.9454083,61.1777776 C48.9454083,59.9739304 49.3656474,58.9793033 50.2061382,58.1938665 C51.0466291,57.4084296 52.2412827,57.0157171 53.7901348,57.0157171 C55.3243059,57.0157171 56.5152892,57.4084296 57.3631206,58.1938665 C58.210952,58.9793033 58.6348613,59.9739304 58.6348613,61.1777776 C58.6348613,61.9265118 58.4403401,62.592655 58.051292,63.1762273 C57.6622438,63.7597995 57.1153824,64.2057301 56.4106914,64.5140324 C57.3062362,64.8737185 57.9870603,65.3985586 58.4531841,66.0885685 C58.9193078,66.7785785 59.1523662,67.5750142 59.1523662,68.4778996 C59.1523662,69.9680275 58.6770739,71.179197 57.7264751,72.1114445 C56.7758763,73.043692 55.5114887,73.5098087 53.9332744,73.5098087 C52.4651682,73.5098087 51.242988,73.1244366 50.2666973,72.3536808 C49.1142339,71.4434549 48.5380108,70.1955833 48.5380108,68.6100285 C48.5380108,67.7365052 48.7545532,66.9345642 49.1876446,66.2041813 C49.620736,65.4737985 50.3033951,64.9104211 51.2356426,64.5140324 Z M51.8742657,61.3979924 C51.8742657,62.014597 52.0486007,62.4953946 52.3972759,62.8403996 C52.7459512,63.1854046 53.2102328,63.3579045 53.7901348,63.3579045 C54.3773773,63.3579045 54.8471643,63.1835695 55.1995098,62.8348942 C55.5518553,62.486219 55.7280254,62.0035863 55.7280254,61.3869817 C55.7280254,60.8070797 55.5536904,60.342798 55.2050152,59.9941228 C54.8563399,59.6454475 54.3957285,59.4711125 53.823167,59.4711125 C53.228584,59.4711125 52.7551268,59.6472827 52.4027813,59.9996282 C52.0504358,60.3519737 51.8742657,60.8180904 51.8742657,61.3979924 Z M51.5879864,68.3127384 C51.5879864,69.1642401 51.8063639,69.8285482 52.2431255,70.3056828 C52.6798871,70.7828173 53.2249134,71.021381 53.8782207,71.021381 C54.516847,71.021381 55.0453573,70.7919928 55.4637676,70.3332096 C55.8821779,69.8744264 56.0913799,69.2119534 56.0913799,68.3457707 C56.0913799,67.5896959 55.8785077,66.9822761 55.4527568,66.5234928 C55.027006,66.0647096 54.4874851,65.8353215 53.8341778,65.8353215 C53.078103,65.8353215 52.5147257,66.0959064 52.1440288,66.6170842 C51.773332,67.1382619 51.5879864,67.7034743 51.5879864,68.3127384 Z" id="8"></path>
                                    <path d="M13.8684211,144.456993 L13.8684211,92.1176471 L30.8731071,92.1176471 C37.3170203,92.1176471 41.5174341,92.3794602 43.4744744,92.9030943 C46.4816339,93.6885454 48.9994956,95.396281 51.0281349,98.0263523 C53.0567743,100.656424 54.0710788,104.054044 54.0710788,108.219315 C54.0710788,111.432524 53.4863621,114.13396 52.3169112,116.323702 C51.1474602,118.513445 49.6618025,120.233081 47.8598934,121.482662 C46.0579844,122.732244 44.2262698,123.559335 42.3646949,123.963962 C39.8348623,124.463794 36.1714332,124.713707 31.3742978,124.713707 L24.4650254,124.713707 L24.4650254,144.456993 L13.8684211,144.456993 Z M24.4650254,100.971779 L24.4650254,115.823872 L30.2645183,115.823872 C34.4411288,115.823872 37.2334493,115.550158 38.6415636,115.002723 C40.049678,114.455287 41.1534799,113.598444 41.9530025,112.432168 C42.7525251,111.265892 43.1522804,109.909224 43.1522804,108.362124 C43.1522804,106.458 42.5914297,104.887121 41.4697114,103.64944 C40.3479932,102.41176 38.927967,101.638221 37.2095901,101.328801 C35.9446738,101.090785 33.4029461,100.971779 29.5843309,100.971779 L24.4650254,100.971779 Z M82.6626814,132.389668 L92.6864963,134.067669 C91.3977137,137.733108 89.3631382,140.523797 86.582709,142.439822 C83.8022798,144.355847 80.3238121,145.313845 76.1472017,145.313845 C69.536224,145.313845 64.6436966,143.159837 61.4694727,138.851756 C58.9635064,135.400532 57.7105421,131.044913 57.7105421,125.784771 C57.7105421,119.501162 59.3572952,114.580265 62.6508509,111.021933 C65.9444065,107.463602 70.1090213,105.684463 75.1448202,105.684463 C80.801144,105.684463 85.2640837,107.546906 88.533773,111.271849 C91.8034623,114.996791 93.3666845,120.703127 93.2234864,128.391028 L68.0207517,128.391028 C68.0923508,131.366221 68.9037943,133.680887 70.4551068,135.335095 C72.0064192,136.989303 73.9395642,137.816394 76.2545997,137.816394 C77.8297785,137.816394 79.1543408,137.387973 80.2283263,136.531117 C81.3023119,135.674261 82.1137554,134.293792 82.6626814,132.389668 Z M83.2354708,122.250258 C83.1638718,119.346469 82.4120932,117.138909 80.9801124,115.62751 C79.5481317,114.116112 77.8059146,113.360424 75.7534089,113.360424 C73.5577052,113.360424 71.7438901,114.157764 70.3119094,115.752468 C68.8799287,117.347172 68.1758821,119.51308 68.1997484,122.250258 L83.2354708,122.250258 Z" id="Pe"></path>
                                </g>
                            </g>
                            <path d="M180.801758,158 L180.801758,110.755859 L196.109375,110.755859 C201.910185,110.755859 205.691397,110.992185 207.453125,111.464844 C210.16017,112.173832 212.426749,113.71532 214.25293,116.089355 C216.079111,118.463391 216.992188,121.530255 216.992188,125.290039 C216.992188,128.190444 216.465826,130.628896 215.413086,132.605469 C214.360346,134.582041 213.022957,136.134272 211.400879,137.262207 C209.7788,138.390142 208.129891,139.136717 206.454102,139.501953 C204.176746,139.953127 200.878928,140.178711 196.560547,140.178711 L190.34082,140.178711 L190.34082,158 L180.801758,158 Z M190.34082,118.748047 L190.34082,132.154297 L195.561523,132.154297 C199.321308,132.154297 201.834955,131.907229 203.102539,131.413086 C204.370124,130.918943 205.363766,130.145513 206.083496,129.092773 C206.803226,128.040034 207.163086,126.815437 207.163086,125.418945 C207.163086,123.700187 206.658208,122.282232 205.648438,121.165039 C204.638667,120.047846 203.360359,119.349611 201.813477,119.070312 C200.674799,118.855468 198.386736,118.748047 194.949219,118.748047 L190.34082,118.748047 Z M233.427734,158 L224.37207,158 L224.37207,123.775391 L232.783203,123.775391 L232.783203,128.641602 C234.222663,126.342762 235.517084,124.828129 236.666504,124.097656 C237.815924,123.367184 239.121086,123.001953 240.582031,123.001953 C242.644542,123.001953 244.631826,123.571283 246.543945,124.709961 L243.740234,132.605469 C242.214836,131.617183 240.796882,131.123047 239.486328,131.123047 C238.218744,131.123047 237.144536,131.472164 236.263672,132.17041 C235.382808,132.868656 234.689944,134.13085 234.185059,135.957031 C233.680173,137.783212 233.427734,141.607393 233.427734,147.429688 L233.427734,158 Z M248.348633,140.404297 C248.348633,137.396469 249.089836,134.485366 250.572266,131.670898 C252.054695,128.856431 254.154772,126.708015 256.872559,125.225586 C259.590346,123.743157 262.624983,123.001953 265.976562,123.001953 C271.154323,123.001953 275.397444,124.683089 278.706055,128.04541 C282.014665,131.407732 283.668945,135.656224 283.668945,140.791016 C283.668945,145.968776 281.998552,150.260237 278.657715,153.665527 C275.316878,157.070818 271.111353,158.773438 266.041016,158.773438 C262.904281,158.773438 259.912612,158.06446 257.065918,156.646484 C254.219224,155.228509 252.054695,153.149916 250.572266,150.410645 C249.089836,147.671373 248.348633,144.335957 248.348633,140.404297 Z M257.629883,140.887695 C257.629883,144.282244 258.435539,146.881827 260.046875,148.686523 C261.658211,150.49122 263.645496,151.393555 266.008789,151.393555 C268.372082,151.393555 270.353996,150.49122 271.95459,148.686523 C273.555184,146.881827 274.355469,144.260759 274.355469,140.823242 C274.355469,137.471663 273.555184,134.893564 271.95459,133.088867 C270.353996,131.284171 268.372082,130.381836 266.008789,130.381836 C263.645496,130.381836 261.658211,131.284171 260.046875,133.088867 C258.435539,134.893564 257.629883,137.493147 257.629883,140.887695 Z M322.147461,158 L313.736328,158 L313.736328,152.972656 C312.339837,154.927744 310.690927,156.383296 308.789551,157.339355 C306.888174,158.295415 304.970713,158.773438 303.037109,158.773438 C299.105449,158.773438 295.737807,157.188981 292.934082,154.02002 C290.130357,150.851058 288.728516,146.430692 288.728516,140.758789 C288.728516,134.957979 290.09276,130.548355 292.821289,127.529785 C295.549818,124.511215 298.998026,123.001953 303.166016,123.001953 C306.990253,123.001953 310.298814,124.591781 313.091797,127.771484 L313.091797,110.755859 L322.147461,110.755859 L322.147461,158 Z M297.977539,140.146484 C297.977539,143.798846 298.482417,146.441398 299.492188,148.074219 C300.953132,150.437512 302.994128,151.619141 305.615234,151.619141 C307.699229,151.619141 309.471672,150.732919 310.932617,148.960449 C312.393562,147.187979 313.124023,144.540057 313.124023,141.016602 C313.124023,137.084941 312.415046,134.254403 310.99707,132.524902 C309.579094,130.795402 307.763683,129.930664 305.550781,129.930664 C303.402333,129.930664 301.603035,130.784659 300.152832,132.492676 C298.702629,134.200692 297.977539,136.751936 297.977539,140.146484 Z M353.600586,158 L353.600586,152.875977 C352.354486,154.702158 350.716319,156.141596 348.686035,157.194336 C346.655752,158.247076 344.512707,158.773438 342.256836,158.773438 C339.957996,158.773438 337.895517,158.26856 336.069336,157.258789 C334.243155,156.249018 332.921879,154.831064 332.105469,153.004883 C331.289058,151.178702 330.880859,148.654313 330.880859,145.431641 L330.880859,123.775391 L339.936523,123.775391 L339.936523,139.501953 C339.936523,144.314477 340.103026,147.263178 340.436035,148.348145 C340.769045,149.433111 341.375972,150.292477 342.256836,150.92627 C343.1377,151.560062 344.254876,151.876953 345.608398,151.876953 C347.155281,151.876953 348.54101,151.452641 349.765625,150.604004 C350.99024,149.755367 351.828123,148.702643 352.279297,147.445801 C352.730471,146.188959 352.956055,143.111353 352.956055,138.212891 L352.956055,123.775391 L362.011719,123.775391 L362.011719,158 L353.600586,158 Z M401.231445,133.894531 L392.304688,135.505859 C392.003905,133.722647 391.321783,132.379887 390.258301,131.477539 C389.194819,130.575191 387.814462,130.124023 386.117188,130.124023 C383.861317,130.124023 382.062018,130.902824 380.719238,132.460449 C379.376458,134.018074 378.705078,136.623029 378.705078,140.275391 C378.705078,144.335958 379.3872,147.204093 380.751465,148.879883 C382.115729,150.555672 383.947254,151.393555 386.246094,151.393555 C387.964852,151.393555 389.372065,150.90479 390.467773,149.927246 C391.563482,148.949702 392.336912,147.268567 392.788086,144.883789 L401.682617,146.398438 C400.758784,150.480489 398.986341,153.563466 396.365234,155.647461 C393.744128,157.731456 390.231467,158.773438 385.827148,158.773438 C380.821264,158.773438 376.830581,157.194352 373.85498,154.036133 C370.87938,150.877914 369.391602,146.505887 369.391602,140.919922 C369.391602,135.269503 370.884751,130.870621 373.871094,127.723145 C376.857437,124.575668 380.896459,123.001953 385.988281,123.001953 C390.156271,123.001953 393.470203,123.898917 395.930176,125.692871 C398.390149,127.486825 400.157221,130.220685 401.231445,133.894531 Z M423.790039,123.775391 L423.790039,130.994141 L417.602539,130.994141 L417.602539,144.787109 C417.602539,147.580092 417.661621,149.207517 417.779785,149.669434 C417.89795,150.13135 418.166502,150.512694 418.585449,150.813477 C419.004397,151.114259 419.514645,151.264648 420.116211,151.264648 C420.954106,151.264648 422.167961,150.974612 423.757812,150.394531 L424.53125,157.419922 C422.425771,158.32227 420.041029,158.773438 417.376953,158.773438 C415.744132,158.773438 414.272467,158.499514 412.961914,157.95166 C411.651361,157.403806 410.689944,156.694829 410.077637,155.824707 C409.465329,154.954585 409.041017,153.778328 408.804688,152.295898 C408.611327,151.243159 408.514648,149.116227 408.514648,145.915039 L408.514648,130.994141 L404.357422,130.994141 L404.357422,123.775391 L408.514648,123.775391 L408.514648,116.975586 L417.602539,111.69043 L417.602539,123.775391 L423.790039,123.775391 Z M448.475586,158 L448.475586,110.755859 L483.505859,110.755859 L483.505859,118.748047 L458.014648,118.748047 L458.014648,129.22168 L481.733398,129.22168 L481.733398,137.181641 L458.014648,137.181641 L458.014648,150.040039 L484.408203,150.040039 L484.408203,158 L448.475586,158 Z M523.563477,158 L514.507812,158 L514.507812,140.533203 C514.507812,136.837872 514.314455,134.447759 513.927734,133.362793 C513.541014,132.277827 512.912602,131.434573 512.04248,130.833008 C511.172359,130.231442 510.125006,129.930664 508.900391,129.930664 C507.332023,129.930664 505.924811,130.360347 504.678711,131.219727 C503.432611,132.079106 502.578616,133.217766 502.116699,134.635742 C501.654783,136.053718 501.423828,138.674786 501.423828,142.499023 L501.423828,158 L492.368164,158 L492.368164,123.775391 L500.779297,123.775391 L500.779297,128.802734 C503.76564,124.935528 507.525368,123.001953 512.058594,123.001953 C514.056651,123.001953 515.882804,123.361813 517.537109,124.081543 C519.191415,124.801273 520.442867,125.719721 521.291504,126.836914 C522.140141,127.954107 522.730955,129.221673 523.063965,130.639648 C523.396974,132.057624 523.563477,134.087877 523.563477,136.730469 L523.563477,158 Z M531.910156,160.255859 L542.254883,161.512695 C542.426759,162.715826 542.824216,163.542966 543.447266,163.994141 C544.306645,164.638675 545.660147,164.960938 547.507812,164.960938 C549.871106,164.960938 551.643549,164.606449 552.825195,163.897461 C553.620121,163.424802 554.221678,162.662115 554.629883,161.609375 C554.909181,160.857418 555.048828,159.47169 555.048828,157.452148 L555.048828,152.457031 C552.341783,156.152362 548.925802,158 544.800781,158 C540.203102,158 536.561537,156.055684 533.875977,152.166992 C531.770497,149.094711 530.717773,145.270531 530.717773,140.694336 C530.717773,134.957979 532.098131,130.57521 534.858887,127.545898 C537.619643,124.516586 541.051737,123.001953 545.155273,123.001953 C549.387716,123.001953 552.878892,124.860333 555.628906,128.577148 L555.628906,123.775391 L564.104492,123.775391 L564.104492,154.487305 C564.104492,158.526387 563.771488,161.544912 563.105469,163.542969 C562.43945,165.541026 561.504889,167.109369 560.301758,168.248047 C559.098627,169.386724 557.492686,170.278317 555.483887,170.922852 C553.475088,171.567386 550.934586,171.889648 547.862305,171.889648 C542.061494,171.889648 537.947278,170.896006 535.519531,168.908691 C533.091785,166.921377 531.87793,164.402359 531.87793,161.351562 C531.87793,161.05078 531.888672,160.685549 531.910156,160.255859 Z M539.999023,140.178711 C539.999023,143.809588 540.70263,146.468253 542.109863,148.154785 C543.517097,149.841317 545.251943,150.68457 547.314453,150.68457 C549.527355,150.68457 551.396477,149.819833 552.921875,148.090332 C554.447273,146.360831 555.209961,143.798845 555.209961,140.404297 C555.209961,136.859357 554.479499,134.227548 553.018555,132.508789 C551.55761,130.79003 549.709972,129.930664 547.475586,129.930664 C545.305653,129.930664 543.517097,130.773917 542.109863,132.460449 C540.70263,134.146981 539.999023,136.719709 539.999023,140.178711 Z M573.063477,119.134766 L573.063477,110.755859 L582.119141,110.755859 L582.119141,119.134766 L573.063477,119.134766 Z M573.063477,158 L573.063477,123.775391 L582.119141,123.775391 L582.119141,158 L573.063477,158 Z M622.53125,158 L613.475586,158 L613.475586,140.533203 C613.475586,136.837872 613.282228,134.447759 612.895508,133.362793 C612.508787,132.277827 611.880375,131.434573 611.010254,130.833008 C610.140132,130.231442 609.09278,129.930664 607.868164,129.930664 C606.299797,129.930664 604.892584,130.360347 603.646484,131.219727 C602.400384,132.079106 601.546389,133.217766 601.084473,134.635742 C600.622556,136.053718 600.391602,138.674786 600.391602,142.499023 L600.391602,158 L591.335938,158 L591.335938,123.775391 L599.74707,123.775391 L599.74707,128.802734 C602.733413,124.935528 606.493141,123.001953 611.026367,123.001953 C613.024424,123.001953 614.850578,123.361813 616.504883,124.081543 C618.159188,124.801273 619.41064,125.719721 620.259277,126.836914 C621.107914,127.954107 621.698729,129.221673 622.031738,130.639648 C622.364748,132.057624 622.53125,134.087877 622.53125,136.730469 L622.53125,158 Z M651.535156,147.107422 L660.558594,148.62207 C659.398432,151.930681 657.566907,154.449698 655.063965,156.179199 C652.561023,157.9087 649.429706,158.773438 645.669922,158.773438 C639.71872,158.773438 635.314467,156.829121 632.457031,152.94043 C630.201161,149.82518 629.073242,145.893578 629.073242,141.145508 C629.073242,135.473604 630.555649,131.031754 633.520508,127.819824 C636.485366,124.607894 640.234352,123.001953 644.767578,123.001953 C649.8594,123.001953 653.876938,124.683089 656.820312,128.04541 C659.763687,131.407732 661.170899,136.558559 661.041992,143.498047 L638.354492,143.498047 C638.418946,146.183607 639.149407,148.272942 640.545898,149.766113 C641.94239,151.259285 643.682607,152.005859 645.766602,152.005859 C647.184577,152.005859 648.376948,151.619144 649.34375,150.845703 C650.310552,150.072262 651.041013,148.82618 651.535156,147.107422 Z M652.050781,137.955078 C651.986328,135.333971 651.309577,133.341315 650.020508,131.977051 C648.731439,130.612786 647.163095,129.930664 645.31543,129.930664 C643.338857,129.930664 641.706061,130.650383 640.416992,132.089844 C639.127923,133.529304 638.494141,135.484363 638.515625,137.955078 L652.050781,137.955078 Z M688.241211,147.107422 L697.264648,148.62207 C696.104486,151.930681 694.272962,154.449698 691.77002,156.179199 C689.267077,157.9087 686.135761,158.773438 682.375977,158.773438 C676.424775,158.773438 672.020522,156.829121 669.163086,152.94043 C666.907215,149.82518 665.779297,145.893578 665.779297,141.145508 C665.779297,135.473604 667.261704,131.031754 670.226562,127.819824 C673.191421,124.607894 676.940407,123.001953 681.473633,123.001953 C686.565455,123.001953 690.582993,124.683089 693.526367,128.04541 C696.469741,131.407732 697.876954,136.558559 697.748047,143.498047 L675.060547,143.498047 C675.125,146.183607 675.855462,148.272942 677.251953,149.766113 C678.648444,151.259285 680.388661,152.005859 682.472656,152.005859 C683.890632,152.005859 685.083003,151.619144 686.049805,150.845703 C687.016606,150.072262 687.747068,148.82618 688.241211,147.107422 Z M688.756836,137.955078 C688.692382,135.333971 688.015631,133.341315 686.726563,131.977051 C685.437494,130.612786 683.86915,129.930664 682.021484,129.930664 C680.044912,129.930664 678.412116,130.650383 677.123047,132.089844 C675.833978,133.529304 675.200195,135.484363 675.22168,137.955078 L688.756836,137.955078 Z M713.796875,158 L704.741211,158 L704.741211,123.775391 L713.152344,123.775391 L713.152344,128.641602 C714.591804,126.342762 715.886225,124.828129 717.035645,124.097656 C718.185064,123.367184 719.490227,123.001953 720.951172,123.001953 C723.013682,123.001953 725.000967,123.571283 726.913086,124.709961 L724.109375,132.605469 C722.583977,131.617183 721.166022,131.123047 719.855469,131.123047 C718.587884,131.123047 717.513676,131.472164 716.632812,132.17041 C715.751949,132.868656 715.059085,134.13085 714.554199,135.957031 C714.049314,137.783212 713.796875,141.607393 713.796875,147.429688 L713.796875,158 Z M730.8125,119.134766 L730.8125,110.755859 L739.868164,110.755859 L739.868164,119.134766 L730.8125,119.134766 Z M730.8125,158 L730.8125,123.775391 L739.868164,123.775391 L739.868164,158 L730.8125,158 Z M780.280273,158 L771.224609,158 L771.224609,140.533203 C771.224609,136.837872 771.031252,134.447759 770.644531,133.362793 C770.257811,132.277827 769.629399,131.434573 768.759277,130.833008 C767.889156,130.231442 766.841803,129.930664 765.617188,129.930664 C764.04882,129.930664 762.641608,130.360347 761.395508,131.219727 C760.149408,132.079106 759.295412,133.217766 758.833496,134.635742 C758.37158,136.053718 758.140625,138.674786 758.140625,142.499023 L758.140625,158 L749.084961,158 L749.084961,123.775391 L757.496094,123.775391 L757.496094,128.802734 C760.482437,124.935528 764.242165,123.001953 768.775391,123.001953 C770.773447,123.001953 772.599601,123.361813 774.253906,124.081543 C775.908211,124.801273 777.159664,125.719721 778.008301,126.836914 C778.856938,127.954107 779.447752,129.221673 779.780762,130.639648 C780.113771,132.057624 780.280273,134.087877 780.280273,136.730469 L780.280273,158 Z M788.626953,160.255859 L798.97168,161.512695 C799.143556,162.715826 799.541013,163.542966 800.164062,163.994141 C801.023442,164.638675 802.376944,164.960938 804.224609,164.960938 C806.587902,164.960938 808.360346,164.606449 809.541992,163.897461 C810.336918,163.424802 810.938475,162.662115 811.34668,161.609375 C811.625978,160.857418 811.765625,159.47169 811.765625,157.452148 L811.765625,152.457031 C809.05858,156.152362 805.642599,158 801.517578,158 C796.919899,158 793.278334,156.055684 790.592773,152.166992 C788.487294,149.094711 787.43457,145.270531 787.43457,140.694336 C787.43457,134.957979 788.814928,130.57521 791.575684,127.545898 C794.33644,124.516586 797.768534,123.001953 801.87207,123.001953 C806.104513,123.001953 809.595689,124.860333 812.345703,128.577148 L812.345703,123.775391 L820.821289,123.775391 L820.821289,154.487305 C820.821289,158.526387 820.488285,161.544912 819.822266,163.542969 C819.156247,165.541026 818.221686,167.109369 817.018555,168.248047 C815.815424,169.386724 814.209483,170.278317 812.200684,170.922852 C810.191884,171.567386 807.651383,171.889648 804.579102,171.889648 C798.778291,171.889648 794.664075,170.896006 792.236328,168.908691 C789.808582,166.921377 788.594727,164.402359 788.594727,161.351562 C788.594727,161.05078 788.605469,160.685549 788.626953,160.255859 Z M796.71582,140.178711 C796.71582,143.809588 797.419427,146.468253 798.82666,148.154785 C800.233894,149.841317 801.96874,150.68457 804.03125,150.68457 C806.244152,150.68457 808.113274,149.819833 809.638672,148.090332 C811.16407,146.360831 811.926758,143.798845 811.926758,140.404297 C811.926758,136.859357 811.196296,134.227548 809.735352,132.508789 C808.274407,130.79003 806.426769,129.930664 804.192383,129.930664 C802.02245,129.930664 800.233894,130.773917 798.82666,132.460449 C797.419427,134.146981 796.71582,136.719709 796.71582,140.178711 Z" id="Product-Engineering" fill="#FFFFFF"></path>
                        </g>
                        <text id="Static-Assets-with-W" font-family="ArialMT, Arial" font-size="36" font-weight="normal">
                            <tspan x="179" y="206" fill="#FFFFFF">Static Assets with Webpack</tspan>
                        </text>
                    </g>
                </g>
            </g>
        </g>
    </g>
</svg>